<?xml version="1.0" encoding="UTF-8" standalone="no"?>
<!DOCTYPE svg PUBLIC "-//W3C//DTD SVG 1.1//EN" "http://www.w3.org/Graphics/SVG/1.1/DTD/svg11.dtd">
<svg width="100%" height="100%" viewBox="0 0 1000 1000" version="1.1" xmlns="http://www.w3.org/2000/svg" xmlns:xlink="http://www.w3.org/1999/xlink" xml:space="preserve" xmlns:serif="http://www.serif.com/" style="fill-rule:evenodd;clip-rule:evenodd;stroke-linecap:round;stroke-linejoin:round;stroke-miterlimit:1.5;">
    <g id="レイヤー1">
        <g transform="matrix(1,5.01973e-06,5.01973e-06,1.0054,-0.00302956,-3.25845)">
            <path d="M263.759,476.813L263.876,603.285" style="fill:none;stroke:black;stroke-width:11.23px;"/>
        </g>
        <path d="M263.758,476.13C263.758,476.13 323.583,467.535 324.136,510.825C324.632,549.53 264.382,545.61 264.382,545.61" style="fill:none;stroke:black;stroke-width:11.26px;"/>
        <path d="M385.225,526.207C385.225,526.207 375.038,519.291 363.933,521.558C357.501,522.871 349.421,527.622 348.889,541.883C348.513,551.954 355.566,557.037 363.304,557.127C372.285,557.231 383.626,558.003 386.169,561.879" style="fill:none;stroke:black;stroke-width:11.26px;"/>
        <g transform="matrix(0.92573,0,0,1,0.293472,-4.15634)">
            <path d="M390.96,561.029C401.636,561.968 427.679,559.109 420.692,585.189C414.368,608.797 384.777,600.963 378.332,591.835" style="fill:none;stroke:black;stroke-width:11.69px;"/>
        </g>
    </g>
    <g id="レイヤー2">
        <g transform="matrix(0.836392,0,0,0.89509,109.426,54.6881)">
            <path d="M593.289,590.33L647.578,469.893" style="fill:none;stroke:black;stroke-width:13px;"/>
        </g>
        <g transform="matrix(0.836392,0,0,0.89509,109.426,54.6881)">
            <path d="M647.578,469.893L701.589,589.841" style="fill:none;stroke:black;stroke-width:13px;"/>
        </g>
        <g transform="matrix(0.836392,0,0,0.89509,109.426,54.6881)">
            <path d="M614.659,551.327L680.546,550.56" style="fill:none;stroke:black;stroke-width:13px;"/>
        </g>
        <g transform="matrix(0.836392,0,0,0.89509,119.703,53.9893)">
            <path d="M730.919,541.461L731.05,591.244" style="fill:none;stroke:black;stroke-width:13px;"/>
        </g>
    </g>
    <g transform="matrix(0.836392,0,0,0.89509,119.703,53.9893)">
        <g id="レイヤー3">
            <ellipse cx="731.491" cy="507.278" rx="7.376" ry="7.028" style="stroke:black;stroke-width:13px;"/>
        </g>
    </g>
    <g id="レイヤー4">
        <path d="M458.911,400.932L458.911,644.861C458.911,649.202 457.186,653.365 454.116,656.435C451.047,659.505 446.883,661.229 442.542,661.229L209.018,661.229C200.453,661.229 193.509,654.286 193.509,645.72L193.509,345.511C193.509,340.532 195.487,335.757 199.008,332.237C202.528,328.716 207.303,326.738 212.282,326.738C259.72,326.738 380.655,326.738 380.655,326.738L458.911,400.932Z" style="fill:none;stroke:black;stroke-width:11.26px;"/>
        <path d="M380.655,326.738C380.655,326.738 380.371,360.681 380.185,382.847C380.144,387.784 382.087,392.532 385.578,396.024C389.069,399.516 393.816,401.46 398.753,401.42C422.081,401.231 458.911,400.932 458.911,400.932L380.655,326.738Z" style="fill:none;stroke:black;stroke-width:11.26px;"/>
        <g transform="matrix(1.00261,0,0,1.00241,-13.1348,-6.97827)">
            <path d="M814.492,408.196L814.492,647.567C814.492,659.037 805.195,668.335 793.728,668.335C743.511,668.335 616.11,668.335 568.23,668.335C563.306,668.335 558.583,666.379 555.1,662.896C551.618,659.413 549.662,654.689 549.662,649.763C549.662,591.82 549.662,414.601 549.662,353.6C549.662,342.063 559.012,332.711 570.547,332.711L740.29,332.711L814.492,408.196Z" style="fill:none;stroke:black;stroke-width:11.24px;"/>
        </g>
        <g transform="matrix(0.943293,0,0,0.960553,34.9609,15.1308)">
            <path d="M740.29,332.711C740.29,332.711 739.331,362.523 738.676,382.877C738.343,393.219 746.433,401.952 756.948,402.602C778.893,403.959 812.149,406.014 812.149,406.014L740.29,332.711Z" style="fill:none;stroke:black;stroke-width:11.83px;"/>
        </g>
    </g>
</svg>
