<?xml version="1.0" encoding="UTF-8" standalone="no"?>
<!DOCTYPE svg PUBLIC "-//W3C//DTD SVG 1.1//EN" "http://www.w3.org/Graphics/SVG/1.1/DTD/svg11.dtd">
<svg width="100%" height="100%" viewBox="0 0 1000 400" version="1.1" xmlns="http://www.w3.org/2000/svg" xmlns:xlink="http://www.w3.org/1999/xlink" xml:space="preserve" xmlns:serif="http://www.serif.com/" style="fill-rule:evenodd;clip-rule:evenodd;stroke-linecap:round;stroke-linejoin:round;stroke-miterlimit:1.5;">
    <g transform="matrix(0.322938,0,0,0.974866,337.802,-12.8235)">
        <g id="レイヤー2">
            <rect x="489.253" y="137.511" width="20.407" height="150.665" style="fill:rgb(59,210,61);stroke:rgb(59,210,61);stroke-width:9.83px;"/>
        </g>
    </g>
    <path d="M0.653,402.508C52.773,282.523 257.087,192.886 500.888,192.886C744.525,192.886 948.729,282.402 1001.02,402.266L0.653,402.508Z" style="fill:rgb(173,242,156);"/>
    <clipPath id="_clip1">
        <path d="M0.653,402.508C52.773,282.523 257.087,192.886 500.888,192.886C744.525,192.886 948.729,282.402 1001.02,402.266L0.653,402.508Z"/>
    </clipPath>
    <g clip-path="url(#_clip1)">
        <g id="レイヤー1">
        </g>
    </g>
    <path d="M0.653,402.508C52.773,282.523 257.087,192.886 500.888,192.886C744.525,192.886 948.729,282.402 1001.02,402.266L0.653,402.508Z" style="fill:none;stroke:rgb(173,242,156);stroke-width:1.85px;"/>
</svg>
